<svg width="1200" height="1200" viewBox="0 0 1200 1200" fill="none" xmlns="http://www.w3.org/2000/svg">
  <defs>
    <linearGradient id="bg" x1="120" y1="120" x2="1080" y2="1100" gradientUnits="userSpaceOnUse">
      <stop stop-color="#FFF7D9"/>
      <stop offset="1" stop-color="#FFE5A6"/>
    </linearGradient>
  </defs>
  <rect width="1200" height="1200" rx="96" fill="url(#bg)"/>
  <circle cx="200" cy="1020" r="210" fill="#FFFFFF" fill-opacity="0.35"/>
  <circle cx="980" cy="180" r="160" fill="#FFFFFF" fill-opacity="0.3"/>
  <rect x="300" y="280" width="420" height="620" rx="34" fill="#F6B100"/>
  <rect x="350" y="330" width="320" height="520" rx="26" fill="#FFF7DD"/>
  <rect x="430" y="360" width="130" height="12" rx="6" fill="#F6B100"/>
  <rect x="430" y="390" width="170" height="12" rx="6" fill="#F6B100" fill-opacity="0.55"/>
  <rect x="470" y="470" width="80" height="80" rx="18" fill="#F6B100"/>
  <rect x="560" y="240" width="350" height="690" rx="34" fill="#2C2540"/>
  <rect x="610" y="300" width="250" height="570" rx="24" fill="#F6F2FF"/>
  <rect x="660" y="360" width="150" height="14" rx="7" fill="#8C7BC4"/>
  <rect x="660" y="398" width="110" height="14" rx="7" fill="#8C7BC4" fill-opacity="0.6"/>
</svg>
